<svg id="Livello_2" data-name="Livello 2" xmlns="http://www.w3.org/2000/svg" xmlns:xlink="http://www.w3.org/1999/xlink" width="654.51" height="148.31" viewBox="0 0 654.51 148.31"><defs><linearGradient id="Sfumatura_senza_nome_6" x1="308.83" y1="71.33" x2="418.2" y2="11.13" gradientUnits="userSpaceOnUse"><stop offset="0.17" stop-color="#fff"/><stop offset="0.19" stop-color="#effff9"/><stop offset="0.25" stop-color="#bcffe6"/><stop offset="0.31" stop-color="#94ffd7"/><stop offset="0.36" stop-color="#77ffcd"/><stop offset="0.41" stop-color="#65ffc6"/><stop offset="0.44" stop-color="#5fffc4"/><stop offset="0.67" stop-color="#5fffc4"/></linearGradient></defs><path d="M79.7,122.78c0,2.76-1.34,4.14-4,4.14H63.49q-3.48,0-3.81-3.42l-.47-6.82a1,1,0,0,0-1.12-.87,1,1,0,0,0-.63.34q-9,12.39-28.58,12.39-13.11,0-20.7-7.2T.56,101A29.82,29.82,0,0,1,3.37,87.56a23.48,23.48,0,0,1,7.54-9,38.87,38.87,0,0,1,12.42-5.4,98.51,98.51,0,0,1,15.73-2.88q7.68-.78,18.32-1a1,1,0,0,0,1-1V65.1q0-8.46-4.47-12.42t-14.41-4a63.47,63.47,0,0,0-24.84,5.4c-2.31.84-3.92,0-4.8-2.52l-3-9.9q-1-3.24,2.32-5,14.73-6.84,33.12-6.84,37.41,0,37.43,34.2ZM58.33,84.38a1,1,0,0,0-1-1q-8.58.34-14.21.94a57.64,57.64,0,0,0-11.35,2.34c-3.58,1.14-6.21,2.77-7.86,4.86a12.45,12.45,0,0,0-2.49,8,11.7,11.7,0,0,0,3.81,9.18Q29,112.12,36,112.12q10.92,0,16.64-5.85t5.71-15.21Z" transform="translate(-0.55 -0.57)" style="fill:#fff"/><path d="M176.76,122.78q0,4.14-3.81,4.14H158.87q-3.81,0-3.81-4.14V68.43q0-9-3.23-13.59t-10.68-4.59q-8.61,0-13.49,5.85t-4.89,15.21v51.47q0,4.14-3.81,4.14H104.89q-4,0-4-4.14V36.21q0-4.14,4-4.14H118q3.65,0,4,3.6l.56,6.26a1,1,0,0,0,1.13.84,1,1,0,0,0,.66-.39,28.56,28.56,0,0,1,8.17-8q6.7-4.5,16.64-4.5,18.24,0,24.45,14.2a1,1,0,0,0,1.34.44,1.14,1.14,0,0,0,.37-.32q8.88-14.33,27.83-14.32,13.89,0,20.86,9t7,25.56v58.31q0,4.14-3.81,4.14H212.86q-3.81,0-3.81-4.14V68.61q0-9.18-3.31-13.77t-10.93-4.59q-8.28,0-13.17,5.67t-4.88,14.31Z" transform="translate(-0.55 -0.57)" style="fill:#fff"/><path d="M454,17.31c0,2.76-1.21,4.14-3.65,4.14H435.58c-2.42,0-3.64-1.38-3.64-4.14V4.71c0-2.76,1.22-4.14,3.64-4.14h14.74C452.76.57,454,2,454,4.71Zm0,105.47q0,4.14-3.81,4.14H435.79q-3.81,0-3.81-4.14V36.21q0-4.14,3.81-4.14H450.2q3.81,0,3.81,4.14Z" transform="translate(-0.55 -0.57)" style="fill:#fff"/><path d="M555.68,122.78c0,2.76-1.26,4.14-3.8,4.14H537.63c-2.66,0-4-1.38-4-4.14V69.33q0-9.54-3.73-14.22t-12.32-4.68q-9.27,0-14.33,5.85T498.2,72.21v50.57q0,4.14-3.81,4.14H480.17q-3.81,0-3.81-4.14V36.21q0-4.14,3.81-4.14h13.08q3.48,0,3.81,3.6l.57,6.39a1,1,0,0,0,1.14.83.93.93,0,0,0,.63-.36q8.46-12.63,26.31-12.62,15.07,0,22.52,9.18T555.68,65Z" transform="translate(-0.55 -0.57)" style="fill:#fff"/><path d="M655,110.9q0,18.54-11,28.26t-30.89,9.72q-19.68,0-30.47-5.58c-2.2-1.2-3-2.82-2.31-4.86l2.81-9.72q1-4,4.64-2.7a65.73,65.73,0,0,0,23.68,4.5q11.28,0,17.06-5.4t5.79-15.3v-4.18a1,1,0,0,0-1.06-.93,1,1,0,0,0-.73.39,23.69,23.69,0,0,1-8.39,7.33,31.89,31.89,0,0,1-15.32,3.69q-16.07,0-25.67-10.44t-9.6-32.21q0-21.78,9.35-32.58T608,30.09A32.43,32.43,0,0,1,623.75,34a25.56,25.56,0,0,1,8.83,7.6,1,1,0,0,0,1.41.15,1,1,0,0,0,.36-.66l.31-5.37c.22-2.4,1.56-3.6,4-3.6h12.58q3.81,0,3.81,4.14ZM614.3,47.73q-18.87,0-18.88,25.74T614.3,99.2q9.12,0,14.16-6.84t5-19.79q.06-24.84-19.16-24.84Z" transform="translate(-0.55 -0.57)" style="fill:#fff"/><path d="M400.59,32.2" transform="translate(-0.55 -0.57)" style="fill:none;stroke:#000;stroke-miterlimit:10;stroke-width:0.25px"/><path d="M339,129.81" transform="translate(-0.55 -0.57)" style="fill:none;stroke:#000;stroke-miterlimit:10;stroke-width:0.25px"/><path d="M415.4,34.65,382,91.63a1.81,1.81,0,0,1-1.55.87L362,92.56a1.83,1.83,0,0,1-1.59-2.74l22.34-38.44a3.1,3.1,0,0,0-2.66-4.71H345.53a3.12,3.12,0,0,1-3.11-3.11V33a3.11,3.11,0,0,1,3.11-3.11h67.21A3.12,3.12,0,0,1,415.86,33,3.07,3.07,0,0,1,415.4,34.65Z" transform="translate(-0.55 -0.57)" style="fill:#52ffbf"/><path d="M415.29,112.2l-6.36,11.91a3.1,3.1,0,0,1-3,2.25H344.45a3.11,3.11,0,0,1-2.67-4.71l7-11.76a3.45,3.45,0,0,1,2.94-1.66h60.53a3.1,3.1,0,0,1,3.16,3.06A2.81,2.81,0,0,1,415.29,112.2Z" transform="translate(-0.55 -0.57)" style="fill:#fff"/><path d="M394.77,67.33" transform="translate(-0.55 -0.57)" style="fill:none"/><path d="M305,91.1q0,9.36-5.71,15.21t-16.65,5.85q-7,0-10.76-3.42A11.68,11.68,0,0,1,268,99.56a12.5,12.5,0,0,1,2.48-8c1.66-2.09,4.28-3.72,7.87-4.86a57.66,57.66,0,0,1,11.35-2.35c4-.41,9.06-.75,15.24-1Z" transform="translate(-0.55 -0.57)" style="fill:none"/><path d="M305,91.1q0,9.36-5.71,15.21t-16.65,5.85q-7,0-10.76-3.42A11.68,11.68,0,0,1,268,99.56a12.5,12.5,0,0,1,2.48-8c1.66-2.09,4.28-3.72,7.87-4.86a57.66,57.66,0,0,1,11.35-2.35c4-.41,9.06-.75,15.24-1Z" transform="translate(-0.55 -0.57)" style="fill:none"/><path d="M372.15,52.71H357.08a1.26,1.26,0,0,0-1.06.62C353,58,349.59,60,343.59,64.51a38.33,38.33,0,0,1-11.69,4.3,41.42,41.42,0,0,1-5.61.43V64.11q0-34.2-37.42-34.2-18.39,0-33.13,6.84c-2.2,1.2-3,2.88-2.31,5l3,9.9q1.32,3.78,4.8,2.52a63.47,63.47,0,0,1,24.84-5.4q9.93,0,14.41,4T305,65.19v4.14q-11.26.18-19.29,1a98.84,98.84,0,0,0-15.74,2.88,39.09,39.09,0,0,0-12.42,5.4,23.54,23.54,0,0,0-7.53,9A29.71,29.71,0,0,0,247.15,101q0,13.14,7.62,20.34t20.7,7.2q21.36,0,30.14-14.76l.66,9.72q.33,3.42,3.81,3.42h12.26c2.66,0,4-1.38,4-4.14V84.46h1.42c25-1.37,38.79-20,45.49-30a.8.8,0,0,0,.1-.46A1.23,1.23,0,0,0,372.15,52.71Zm-72.88,53.6q-5.72,5.85-16.65,5.85-7,0-10.76-3.42A11.68,11.68,0,0,1,268,99.56a12.5,12.5,0,0,1,2.48-8c1.66-2.09,4.28-3.72,7.87-4.86a57.66,57.66,0,0,1,11.35-2.35c4-.41,9.06-.75,15.24-1l0,7.75Q305,100.46,299.27,106.31Z" transform="translate(-0.55 -0.57)" style="fill:url(#Sfumatura_senza_nome_6)"/><path d="M403.39,24" transform="translate(-0.55 -0.57)" style="fill:none;stroke:#000;stroke-miterlimit:10;stroke-width:0.25px"/><path d="M341.78,121.65" transform="translate(-0.55 -0.57)" style="fill:none;stroke:#000;stroke-miterlimit:10;stroke-width:0.25px"/></svg>