<svg id="Livello_2" data-name="Livello 2" xmlns="http://www.w3.org/2000/svg" xmlns:xlink="http://www.w3.org/1999/xlink" width="168.72" height="98.65" viewBox="0 0 168.72 98.65"><defs><linearGradient id="Sfumatura_senza_nome_8" x1="70.79" y1="40.58" x2="186.74" y2="-5.7" gradientUnits="userSpaceOnUse"><stop offset="0.17" stop-color="#fff"/><stop offset="0.3" stop-color="#5fffc4"/><stop offset="0.9" stop-color="#5fffc4"/></linearGradient></defs><path d="M168.28,4.74l-33.44,57a1.82,1.82,0,0,1-1.55.87l-18.41.06a1.82,1.82,0,0,1-1.59-2.74l22.34-38.44a3.12,3.12,0,0,0-1.07-4.27,3.07,3.07,0,0,0-1.59-.44H98.41a3.11,3.11,0,0,1-3.11-3.11V3.11A3.11,3.11,0,0,1,98.41,0h67.21a3.12,3.12,0,0,1,3.11,3.13A3.15,3.15,0,0,1,168.28,4.74Z" transform="translate(-0.01 0)" style="fill:#52ffbf"/><path d="M168.17,82.29,161.81,94.2a3.11,3.11,0,0,1-3,2.25H97.33a3.1,3.1,0,0,1-2.67-4.71l7-11.76a3.42,3.42,0,0,1,2.94-1.66h60.53a3.11,3.11,0,0,1,3.16,3.06A3.5,3.5,0,0,1,168.17,82.29Z" transform="translate(-0.01 0)" style="fill:#fff"/><path d="M147.65,37.42" transform="translate(-0.01 0)" style="fill:none"/><path d="M57.85,61.19q0,9.36-5.71,15.21T35.49,82.25q-6.95,0-10.76-3.42a11.71,11.71,0,0,1-3.86-9.18,12.56,12.56,0,0,1,2.48-8c1.66-2.09,4.28-3.72,7.87-4.86a58,58,0,0,1,11.35-2.35c4-.41,9.06-.75,15.24-1Z" transform="translate(-0.01 0)" style="fill:none"/><path d="M57.85,61.19q0,9.36-5.71,15.21T35.49,82.25q-6.95,0-10.76-3.42a11.71,11.71,0,0,1-3.86-9.18,12.56,12.56,0,0,1,2.48-8c1.66-2.09,4.28-3.72,7.87-4.86a58,58,0,0,1,11.35-2.35c4-.41,9.06-.75,15.24-1Z" transform="translate(-0.01 0)" style="fill:none"/><path d="M125,22.8H110a1.27,1.27,0,0,0-1.06.62c-3,4.68-6.43,6.71-12.43,11.18a38.26,38.26,0,0,1-11.68,4.3,41.82,41.82,0,0,1-5.62.43V34.2Q79.16,0,41.74,0,23.35,0,8.61,6.84c-2.2,1.2-3,2.88-2.31,5l3,9.9q1.32,3.78,4.8,2.52a63.47,63.47,0,0,1,24.84-5.4q9.93,0,14.41,4t4.47,12.42v4.14q-11.26.18-19.29,1A98.84,98.84,0,0,0,22.79,43.3a39.29,39.29,0,0,0-12.42,5.4,23.54,23.54,0,0,0-7.53,9A29.84,29.84,0,0,0,0,71.11Q0,84.25,7.64,91.45t20.7,7.2q21.36,0,30.14-14.76l.66,9.72Q59.47,97,63,97H75.21q4,0,4-4.14V54.55h1.42c25-1.37,38.8-20,45.5-30a1,1,0,0,0,.1-.46A1.24,1.24,0,0,0,125,22.8ZM52.14,76.4q-5.72,5.85-16.65,5.85-6.95,0-10.76-3.42a11.71,11.71,0,0,1-3.86-9.18,12.56,12.56,0,0,1,2.48-8c1.66-2.09,4.28-3.72,7.87-4.86a58,58,0,0,1,11.35-2.35c4-.41,9.06-.75,15.24-1l0,7.75Q57.85,70.55,52.14,76.4Z" transform="translate(-0.01 0)" style="fill:url(#Sfumatura_senza_nome_8)"/><path d="M156.27-5.87" transform="translate(-0.01 0)" style="fill:none;stroke:#000;stroke-miterlimit:10;stroke-width:0.25px"/><path d="M94.66,91.74" transform="translate(-0.01 0)" style="fill:none;stroke:#000;stroke-miterlimit:10;stroke-width:0.25px"/></svg>