<?xml version="1.0" encoding="utf-8"?>
<!-- Generator: Adobe Illustrator 25.0.0, SVG Export Plug-In . SVG Version: 6.00 Build 0)  -->
<svg version="1.1" id="Livello_2_1_" xmlns="http://www.w3.org/2000/svg" xmlns:xlink="http://www.w3.org/1999/xlink" x="0px"
	 y="0px" width="168.7px" height="98.7px" viewBox="0 0 168.7 98.7" style="enable-background:new 0 0 168.7 98.7;"
	 xml:space="preserve">
<style type="text/css">
	.st0{fill:#52FFBF;}
	.st1{fill:none;}
	.st2{fill:url(#SVGID_1_);}
	.st3{fill:none;stroke:#000000;stroke-width:0.25;stroke-miterlimit:10;}
</style>
<path class="st0" d="M168.3,4.7l-33.4,57c-0.3,0.5-0.9,0.9-1.6,0.9l-18.4,0.1c-1,0-1.8-0.8-1.8-1.8c0-0.3,0.1-0.7,0.2-0.9l22.3-38.4
	c0.9-1.5,0.4-3.4-1.1-4.3c-0.5-0.3-1-0.4-1.6-0.4H98.4c-1.7,0-3.1-1.4-3.1-3.1c0,0,0,0,0,0V3.1c0-1.7,1.4-3.1,3.1-3.1h67.2
	c1.7,0,3.1,1.4,3.1,3.1c0,0,0,0,0,0C168.7,3.7,168.6,4.3,168.3,4.7z"/>
<path d="M168.2,82.3l-6.4,11.9c-0.4,1.3-1.6,2.3-3,2.2H97.3c-1.7,0-3.1-1.4-3.1-3.1c0-0.6,0.2-1.1,0.5-1.6l7-11.8
	c0.6-1,1.7-1.7,2.9-1.7h60.5c1.7,0,3.1,1.3,3.2,3.1c0,0,0,0,0,0C168.3,81.7,168.2,82,168.2,82.3z"/>
<path class="st1" d="M147.6,37.4"/>
<path class="st1" d="M57.8,61.2c0,6.2-1.9,11.3-5.7,15.2c-3.8,3.9-9.4,5.9-16.7,5.9c-4.6,0-8.2-1.1-10.8-3.4c-2.6-2.3-4-5.7-3.9-9.2
	c-0.1-2.9,0.8-5.7,2.5-8c1.7-2.1,4.3-3.7,7.9-4.9c3.7-1.2,7.5-1.9,11.3-2.3c4-0.4,9.1-0.8,15.2-1L57.8,61.2z"/>
<path class="st1" d="M57.8,61.2c0,6.2-1.9,11.3-5.7,15.2c-3.8,3.9-9.4,5.9-16.7,5.9c-4.6,0-8.2-1.1-10.8-3.4c-2.6-2.3-4-5.7-3.9-9.2
	c-0.1-2.9,0.8-5.7,2.5-8c1.7-2.1,4.3-3.7,7.9-4.9c3.7-1.2,7.5-1.9,11.3-2.3c4-0.4,9.1-0.8,15.2-1L57.8,61.2z"/>
<linearGradient id="SVGID_1_" gradientUnits="userSpaceOnUse" x1="52.9607" y1="52.9698" x2="166.0576" y2="105.8406" gradientTransform="matrix(1 0 0 -1 0 100.02)">
	<stop  offset="0.25" style="stop-color:#000000"/>
	<stop  offset="0.2548" style="stop-color:#020504"/>
	<stop  offset="0.3423" style="stop-color:#225D47"/>
	<stop  offset="0.4194" style="stop-color:#3CA27D"/>
	<stop  offset="0.4832" style="stop-color:#4FD4A3"/>
	<stop  offset="0.5312" style="stop-color:#5BF3BB"/>
	<stop  offset="0.5581" style="stop-color:#5FFFC4"/>
</linearGradient>
<path class="st2" d="M125,22.8h-15.1c-0.4,0-0.8,0.2-1.1,0.6c-3,4.7-6.4,6.7-12.4,11.2c-3.6,2.1-7.6,3.5-11.7,4.3
	c-1.9,0.3-3.7,0.4-5.6,0.4v-5.1C79.2,11.4,66.7,0,41.7,0C29.5,0,18.4,2.3,8.6,6.8c-2.2,1.2-3,2.9-2.3,5l3,9.9
	c0.9,2.5,2.5,3.4,4.8,2.5c7.8-3.5,16.3-5.3,24.8-5.4c6.6,0,11.4,1.3,14.4,4c3,2.7,4.5,6.8,4.5,12.4v4.1c-7.5,0.1-13.9,0.5-19.3,1
	c-5.3,0.5-10.6,1.5-15.7,2.9c-4.4,1.1-8.6,2.9-12.4,5.4c-3.2,2.3-5.8,5.4-7.5,9c-2,4.2-2.9,8.8-2.8,13.4c0,8.8,2.5,15.5,7.6,20.3
	c5.1,4.8,12,7.2,20.7,7.2c14.2,0,24.3-4.9,30.1-14.8l0.7,9.7c0.2,2.3,1.5,3.4,3.8,3.4h12.3c2.7,0,4-1.4,4-4.1V54.5h1.4
	c25-1.4,38.8-20,45.5-30c0.1-0.1,0.1-0.3,0.1-0.5C126.2,23.4,125.7,22.8,125,22.8C125,22.8,125,22.8,125,22.8z M52.1,76.4
	c-3.8,3.9-9.4,5.8-16.6,5.8c-4.6,0-8.2-1.1-10.8-3.4c-2.6-2.3-4-5.7-3.9-9.2c-0.1-2.9,0.8-5.7,2.5-8c1.7-2.1,4.3-3.7,7.9-4.9
	c3.7-1.2,7.5-1.9,11.4-2.3c4-0.4,9.1-0.8,15.2-1v7.8C57.8,67.4,55.9,72.5,52.1,76.4z"/>
<path class="st3" d="M156.3-5.9"/>
<path class="st3" d="M94.7,91.7"/>
</svg>
