<svg xmlns="http://www.w3.org/2000/svg" width="154.6" height="439.2" viewBox="0 0 154.6 439.2">
  <defs>
    <style type="text/css"><![CDATA[
      #Livello_2 {
        fill: #75ffcd;
        fill: #1e293b;
      }

      #Livello_3 {
        fill: #75ffcd;
        fill: #222f44;
      }

      #Livello_4 {
        fill: #39dac8;
        fill: #244861;
      }

      #Livello_5 {
        fill: #00b4bb;
        fill: #1c6a85;
      }

      #Livello_6 {
        fill: #008ea4;
      }

      #Livello_7 {
        fill: #1c6a85;
        fill: #00b4bb;
      }

      #Livello_8 {
        fill: #244861;
        fill: #39dac8;
      }

      #visual {
        fill: #222f44;
        fill: #75ffcd;
      }
    ]]></style>
  </defs>
  <g id="Livello_2" data-name="Livello 2">
    <polyline points="154.6 0 0 0 0 1.2 0 439.2 154.6 439.2"  />
  </g>
  <g id="Livello_3" data-name="Livello 3">
    <path d="M332.8,701.78V602.4H283.23c-1.07,2.82-2.37,5.65-3.57,8.47-4.56,10.71-7.81,21.37-6.46,32.08s7.31,21.37,3.67,32.08-18.63,16.89-17.43,25.29c1.44,10.1,25,14.61,25.8,27.2.44,7.34-8.1,22.74-18.22,33.45s-20.29,21.37-17,32.08,19.83,21.37,25.9,32.08,1.54,21.37-3.48,32.08-10.59,21.37-10.2,32.08,6.72,21.37,4.79,32.15S254.84,943,245.14,953.76s-19,21.45-10.43,32.15,35,21.38,45.22,32.08c7.54,7.88,6.3,15.74,3.3,23.61H332.8V701.78Z" transform="translate(-178.2 -602.4)"/>
  </g>
  <g id="Livello_4" data-name="Livello 4">
    <path d="M251.52,753.51a82.82,82.82,0,0,0-.77,12.59c.14,9-1.44,17.95-2.09,26.95a126.26,126.26,0,0,0,1.74,32.08c2,10.7,5.49,21.37,1.74,32.08s-14.69,21.37-8,32.08,30.84,21.37,38.46,32.15-1.44,21.57-7.16,32.32a66.37,66.37,0,0,0-8.11,32.15c.08,10.71,2.63,21.38,1.81,32.08-.62,7.88-3.09,15.74-6.28,23.61h70V602.4h-70c-1.14,2.82-2.37,5.65-3.65,8.47C254.34,621.58,248.93,632.24,248,643s2.52,21.37,5.22,32.08c1.06,4.2,2,8.4,2.82,12.27a81.09,81.09,0,0,1,.92,27.79Z" transform="translate(-178.2 -602.4)"/>
  </g>
  <g id="Livello_5" data-name="Livello 5">
    <path d="M271.58,728.81a46.32,46.32,0,0,0,6.63,9.49c5.27,5.82,12.31,14.23,16.06,22.67,4.79,10.71,4.25,21.37.46,32.08s-10.9,21.37-12.1,32.08,3.4,21.37-.35,32.08-15.84,21.37-21.76,32.08-5.68,21.37,2.25,32.15,23.53,21.57,24,32.32-14.22,21.45-20.52,32.15-4.26,21.38-6.07,32.08c-1.34,7.88-4.74,15.74-6.13,23.61H332.8V602.4H254a34.49,34.49,0,0,0-.52,8.47c.85,10.71,8.19,21.37,14.3,32.08s11,21.37,8.19,32.08a33.42,33.42,0,0,1-3.36,7.94,47.4,47.4,0,0,0-1.14,45.65Z" transform="translate(-178.2 -602.4)"/>
  </g>
  <g id="Livello_6" data-name="Livello 6">
    <path d="M284.93,721.56A113.4,113.4,0,0,0,277.88,748c-.57,4.07-1.18,8.52-1.78,13-1.39,10.71-2.71,21.37-3.59,32.08s-1.43,21.37,1.54,32.08,9.39,21.37,10.63,32.08-2.78,21.37-4.37,32.08-.85,21.37.39,32.15,2.9,21.57,4.17,32.32,2.21,21.45,5.22,32.15,8.2,21.38,4.91,32.08c-2.42,7.88-9.42,15.74-12.25,23.61H332.8V602.4H282.75a16.91,16.91,0,0,0-1.05,8.47c1.74,10.71,17,21.37,22.58,32.08s1.58,21.37-2.21,32.08c-3.17,9-6.23,17.89-8.18,23.71-.7,2.08-1.46,4.13-2.27,6.17Z" transform="translate(-178.2 -602.4)"/>
  </g>
  <g id="Livello_7" data-name="Livello 7">
    <path d="M286.66,721a118,118,0,0,0-8.22,27.89c-.62,3.83-1.29,8-1.95,12.12-1.66,10.71-3.21,21.37,2.47,32.08s18.55,21.37,23.23,32.08,1.24,21.37-2.51,32.08-7.73,21.37-8.51,32.08,1.7,21.37,5.8,32.15,9.93,21.57,13.1,32.32a75.06,75.06,0,0,1,2.13,32.15c-1.55,10.71-5.18,21.38-8.5,32.08q-3.72,11.82-7,23.61H332.8V602.4H296.73c-.78,2.82-1.54,5.65-2.27,8.47-2.74,10.71-5.22,21.37-8.89,32.08S277,664.32,279.15,675c1.09,5.46,4,10.9,7.18,15.64a26.62,26.62,0,0,1,2.42,25.49Z" transform="translate(-178.2 -602.4)"/>
  </g>
  <g id="Livello_8" data-name="Livello 8">
    <path d="M299.68,724.82a28,28,0,0,1,1.14,18.84c-1.49,5.11-3.13,11.2-4.43,17.31-2.24,10.71-3.4,21.37-.69,32.08s9.27,21.37,12.63,32.08,3.48,21.37-.58,32.08-12.32,21.37-16,32.08-2.74,21.37-2.82,32.15-1.08,21.57.58,32.32,6.07,21.45,10.36,32.15,8.58,21.38,9.08,32.08c.4,7.88-1.25,15.74-1.86,23.61H332.8V602.4H307.09a59.87,59.87,0,0,0-.11,8.47c.7,10.71,5.34,21.37,3.4,32.08S300,664.32,295.39,675a69,69,0,0,0-4.86,18.7,28,28,0,0,0,2,14.48Z" transform="translate(-178.2 -602.4)"/>
  </g>
  <g id="visual">
    <path d="M317.84,734.22c-.62,5.38-1.93,16-1.2,26.75s3.41,21.37,3.1,32.08-3.68,21.37-4.6,32.08.65,21.37,0,32.08-3.67,21.37-5,32.08a121.07,121.07,0,0,0,.39,32.15c1.47,10.75,4.17,21.57,3.67,32.32s-4.25,21.45-4.13,32.15,4.13,21.38,5.33,32.08c.91,7.88.32,15.74.32,23.61H332.8V602.4H315.65c0,2.82.08,5.65.34,8.47,1,10.71,4.44,21.37,3.67,32.08s-5.8,21.37-6,32.08c-.15,8.21,2.54,16.39,4.85,22.19a21.76,21.76,0,0,1,1.49,9.84Z" transform="translate(-178.2 -602.4)"/>
  </g>
</svg>